<mxfile host="Electron" agent="Mozilla/5.0 (Windows NT 10.0; Win64; x64) AppleWebKit/537.36 (KHTML, like Gecko) draw.io/24.7.8 Chrome/128.0.6613.36 Electron/32.0.1 Safari/537.36" version="24.7.8">
  <diagram name="Página-1" id="INBRxl4EpuKfedx4UIUU">
    <mxGraphModel dx="2670" dy="899" grid="1" gridSize="10" guides="1" tooltips="1" connect="1" arrows="1" fold="1" page="1" pageScale="1" pageWidth="827" pageHeight="1169" math="0" shadow="0">
      <root>
        <mxCell id="0" />
        <mxCell id="1" parent="0" />
        <mxCell id="OIQ3DRaQgSODuWxTGR8f-54" value="" style="rounded=1;whiteSpace=wrap;html=1;absoluteArcSize=1;arcSize=14;strokeWidth=2;" vertex="1" parent="1">
          <mxGeometry x="780" y="710" width="850" height="450" as="geometry" />
        </mxCell>
        <mxCell id="OIQ3DRaQgSODuWxTGR8f-1" value="Usuario" style="shape=umlActor;verticalLabelPosition=bottom;verticalAlign=top;html=1;outlineConnect=0;" vertex="1" parent="1">
          <mxGeometry x="40" y="20" width="30" height="60" as="geometry" />
        </mxCell>
        <mxCell id="OIQ3DRaQgSODuWxTGR8f-3" value="Cliente (Navegador)" style="rounded=0;whiteSpace=wrap;html=1;" vertex="1" parent="1">
          <mxGeometry x="500" y="20" width="120" height="60" as="geometry" />
        </mxCell>
        <mxCell id="OIQ3DRaQgSODuWxTGR8f-4" value="API" style="rounded=0;whiteSpace=wrap;html=1;" vertex="1" parent="1">
          <mxGeometry x="740" y="20" width="120" height="60" as="geometry" />
        </mxCell>
        <mxCell id="OIQ3DRaQgSODuWxTGR8f-5" value="Servicio de Autenticación" style="rounded=0;whiteSpace=wrap;html=1;" vertex="1" parent="1">
          <mxGeometry x="990" y="20" width="120" height="60" as="geometry" />
        </mxCell>
        <mxCell id="OIQ3DRaQgSODuWxTGR8f-6" value="Barra de Búsqueda" style="rounded=0;whiteSpace=wrap;html=1;" vertex="1" parent="1">
          <mxGeometry x="230" y="20" width="120" height="60" as="geometry" />
        </mxCell>
        <mxCell id="OIQ3DRaQgSODuWxTGR8f-8" value="Base de Datos" style="rounded=0;whiteSpace=wrap;html=1;" vertex="1" parent="1">
          <mxGeometry x="1280" y="20" width="120" height="60" as="geometry" />
        </mxCell>
        <mxCell id="OIQ3DRaQgSODuWxTGR8f-9" value="Sistema de Caché" style="rounded=0;whiteSpace=wrap;html=1;" vertex="1" parent="1">
          <mxGeometry x="1550" y="20" width="120" height="60" as="geometry" />
        </mxCell>
        <mxCell id="OIQ3DRaQgSODuWxTGR8f-10" value="" style="endArrow=none;dashed=1;html=1;dashPattern=1 3;strokeWidth=2;rounded=0;" edge="1" parent="1">
          <mxGeometry width="50" height="50" relative="1" as="geometry">
            <mxPoint x="-705.2" y="970" as="sourcePoint" />
            <mxPoint x="-710.0026315789473" y="240" as="targetPoint" />
          </mxGeometry>
        </mxCell>
        <mxCell id="OIQ3DRaQgSODuWxTGR8f-11" value="" style="endArrow=none;dashed=1;html=1;dashPattern=1 3;strokeWidth=2;rounded=0;entryX=0.5;entryY=1;entryDx=0;entryDy=0;" edge="1" parent="1" source="OIQ3DRaQgSODuWxTGR8f-94" target="OIQ3DRaQgSODuWxTGR8f-6">
          <mxGeometry width="50" height="50" relative="1" as="geometry">
            <mxPoint x="290" y="1440" as="sourcePoint" />
            <mxPoint x="900" y="440" as="targetPoint" />
          </mxGeometry>
        </mxCell>
        <mxCell id="OIQ3DRaQgSODuWxTGR8f-12" value="" style="endArrow=none;dashed=1;html=1;dashPattern=1 3;strokeWidth=2;rounded=0;entryX=0.5;entryY=1;entryDx=0;entryDy=0;" edge="1" parent="1" source="OIQ3DRaQgSODuWxTGR8f-34">
          <mxGeometry width="50" height="50" relative="1" as="geometry">
            <mxPoint x="559.29" y="810" as="sourcePoint" />
            <mxPoint x="559.29" y="80" as="targetPoint" />
          </mxGeometry>
        </mxCell>
        <mxCell id="OIQ3DRaQgSODuWxTGR8f-13" value="" style="endArrow=none;dashed=1;html=1;dashPattern=1 3;strokeWidth=2;rounded=0;entryX=0.5;entryY=1;entryDx=0;entryDy=0;" edge="1" parent="1" source="OIQ3DRaQgSODuWxTGR8f-50">
          <mxGeometry width="50" height="50" relative="1" as="geometry">
            <mxPoint x="799.29" y="810" as="sourcePoint" />
            <mxPoint x="799.29" y="80" as="targetPoint" />
          </mxGeometry>
        </mxCell>
        <mxCell id="OIQ3DRaQgSODuWxTGR8f-14" value="" style="endArrow=none;dashed=1;html=1;dashPattern=1 3;strokeWidth=2;rounded=0;entryX=0.5;entryY=1;entryDx=0;entryDy=0;" edge="1" parent="1" source="OIQ3DRaQgSODuWxTGR8f-44">
          <mxGeometry width="50" height="50" relative="1" as="geometry">
            <mxPoint x="1049.29" y="810" as="sourcePoint" />
            <mxPoint x="1049.29" y="80" as="targetPoint" />
          </mxGeometry>
        </mxCell>
        <mxCell id="OIQ3DRaQgSODuWxTGR8f-15" value="" style="endArrow=none;dashed=1;html=1;dashPattern=1 3;strokeWidth=2;rounded=0;entryX=0.5;entryY=1;entryDx=0;entryDy=0;" edge="1" parent="1" source="OIQ3DRaQgSODuWxTGR8f-72">
          <mxGeometry width="50" height="50" relative="1" as="geometry">
            <mxPoint x="1339" y="1210" as="sourcePoint" />
            <mxPoint x="1339.29" y="80" as="targetPoint" />
          </mxGeometry>
        </mxCell>
        <mxCell id="OIQ3DRaQgSODuWxTGR8f-16" value="" style="endArrow=none;dashed=1;html=1;dashPattern=1 3;strokeWidth=2;rounded=0;entryX=0.5;entryY=1;entryDx=0;entryDy=0;" edge="1" parent="1" source="OIQ3DRaQgSODuWxTGR8f-60">
          <mxGeometry width="50" height="50" relative="1" as="geometry">
            <mxPoint x="1609" y="1190" as="sourcePoint" />
            <mxPoint x="1609.29" y="80" as="targetPoint" />
          </mxGeometry>
        </mxCell>
        <mxCell id="OIQ3DRaQgSODuWxTGR8f-18" value="" style="endArrow=classic;html=1;rounded=0;" edge="1" parent="1">
          <mxGeometry width="50" height="50" relative="1" as="geometry">
            <mxPoint x="50" y="160" as="sourcePoint" />
            <mxPoint x="290" y="160" as="targetPoint" />
          </mxGeometry>
        </mxCell>
        <mxCell id="OIQ3DRaQgSODuWxTGR8f-19" value="1. Ingresar términos de búsqueda" style="text;html=1;align=center;verticalAlign=middle;resizable=0;points=[];autosize=1;strokeColor=none;fillColor=none;" vertex="1" parent="1">
          <mxGeometry x="70" y="120" width="200" height="30" as="geometry" />
        </mxCell>
        <mxCell id="OIQ3DRaQgSODuWxTGR8f-20" value="" style="endArrow=classic;html=1;rounded=0;" edge="1" parent="1">
          <mxGeometry width="50" height="50" relative="1" as="geometry">
            <mxPoint x="290" y="280" as="sourcePoint" />
            <mxPoint x="560" y="280" as="targetPoint" />
          </mxGeometry>
        </mxCell>
        <mxCell id="OIQ3DRaQgSODuWxTGR8f-26" value="Autocompletado (Sugerencias)" style="text;html=1;align=center;verticalAlign=middle;resizable=0;points=[];autosize=1;strokeColor=none;fillColor=none;" vertex="1" parent="1">
          <mxGeometry x="300" y="200" width="190" height="30" as="geometry" />
        </mxCell>
        <mxCell id="OIQ3DRaQgSODuWxTGR8f-30" value="" style="endArrow=none;dashed=1;html=1;dashPattern=1 3;strokeWidth=2;rounded=0;entryX=0.5;entryY=1;entryDx=0;entryDy=0;" edge="1" parent="1" source="OIQ3DRaQgSODuWxTGR8f-27">
          <mxGeometry width="50" height="50" relative="1" as="geometry">
            <mxPoint x="54.28999999999999" y="840" as="sourcePoint" />
            <mxPoint x="54.28999999999999" y="110" as="targetPoint" />
          </mxGeometry>
        </mxCell>
        <mxCell id="OIQ3DRaQgSODuWxTGR8f-31" value="" style="endArrow=none;dashed=1;html=1;dashPattern=1 3;strokeWidth=2;rounded=0;entryX=0.5;entryY=1;entryDx=0;entryDy=0;" edge="1" parent="1" source="OIQ3DRaQgSODuWxTGR8f-96" target="OIQ3DRaQgSODuWxTGR8f-27">
          <mxGeometry width="50" height="50" relative="1" as="geometry">
            <mxPoint x="55" y="1440" as="sourcePoint" />
            <mxPoint x="54.28999999999999" y="110" as="targetPoint" />
          </mxGeometry>
        </mxCell>
        <mxCell id="OIQ3DRaQgSODuWxTGR8f-27" value="" style="rounded=0;whiteSpace=wrap;html=1;" vertex="1" parent="1">
          <mxGeometry x="45" y="120" width="20" height="60" as="geometry" />
        </mxCell>
        <mxCell id="OIQ3DRaQgSODuWxTGR8f-32" value="" style="rounded=0;whiteSpace=wrap;html=1;" vertex="1" parent="1">
          <mxGeometry x="280" y="195" width="20" height="40" as="geometry" />
        </mxCell>
        <mxCell id="OIQ3DRaQgSODuWxTGR8f-33" value="3. Envia la consulta de búsqueda" style="text;html=1;align=center;verticalAlign=middle;resizable=0;points=[];autosize=1;strokeColor=none;fillColor=none;" vertex="1" parent="1">
          <mxGeometry x="320" y="280" width="200" height="30" as="geometry" />
        </mxCell>
        <mxCell id="OIQ3DRaQgSODuWxTGR8f-35" value="" style="endArrow=none;dashed=1;html=1;dashPattern=1 3;strokeWidth=2;rounded=0;entryX=0.5;entryY=1;entryDx=0;entryDy=0;" edge="1" parent="1" source="OIQ3DRaQgSODuWxTGR8f-36" target="OIQ3DRaQgSODuWxTGR8f-34">
          <mxGeometry width="50" height="50" relative="1" as="geometry">
            <mxPoint x="559.29" y="810" as="sourcePoint" />
            <mxPoint x="559.29" y="80" as="targetPoint" />
          </mxGeometry>
        </mxCell>
        <mxCell id="OIQ3DRaQgSODuWxTGR8f-34" value="" style="rounded=0;whiteSpace=wrap;html=1;" vertex="1" parent="1">
          <mxGeometry x="550" y="290" width="20" height="70" as="geometry" />
        </mxCell>
        <mxCell id="OIQ3DRaQgSODuWxTGR8f-37" value="" style="endArrow=none;dashed=1;html=1;dashPattern=1 3;strokeWidth=2;rounded=0;entryX=0.5;entryY=1;entryDx=0;entryDy=0;" edge="1" parent="1" source="OIQ3DRaQgSODuWxTGR8f-87" target="OIQ3DRaQgSODuWxTGR8f-36">
          <mxGeometry width="50" height="50" relative="1" as="geometry">
            <mxPoint x="560" y="1380" as="sourcePoint" />
            <mxPoint x="560" y="360" as="targetPoint" />
          </mxGeometry>
        </mxCell>
        <mxCell id="OIQ3DRaQgSODuWxTGR8f-36" value="" style="rounded=0;whiteSpace=wrap;html=1;" vertex="1" parent="1">
          <mxGeometry x="550" y="380" width="20" height="40" as="geometry" />
        </mxCell>
        <mxCell id="OIQ3DRaQgSODuWxTGR8f-38" value="Valida la entrada" style="text;html=1;align=center;verticalAlign=middle;resizable=0;points=[];autosize=1;strokeColor=none;fillColor=none;" vertex="1" parent="1">
          <mxGeometry x="570" y="385" width="110" height="30" as="geometry" />
        </mxCell>
        <mxCell id="OIQ3DRaQgSODuWxTGR8f-39" value="" style="endArrow=classic;html=1;rounded=0;" edge="1" parent="1">
          <mxGeometry width="50" height="50" relative="1" as="geometry">
            <mxPoint x="557" y="460" as="sourcePoint" />
            <mxPoint x="800" y="460" as="targetPoint" />
          </mxGeometry>
        </mxCell>
        <mxCell id="OIQ3DRaQgSODuWxTGR8f-40" value="5. Envia solicitud de HTTP de la búsqueda" style="text;html=1;align=center;verticalAlign=middle;resizable=0;points=[];autosize=1;strokeColor=none;fillColor=none;" vertex="1" parent="1">
          <mxGeometry x="550" y="430" width="250" height="30" as="geometry" />
        </mxCell>
        <mxCell id="OIQ3DRaQgSODuWxTGR8f-41" value="" style="rounded=0;whiteSpace=wrap;html=1;" vertex="1" parent="1">
          <mxGeometry x="790" y="470" width="20" height="40" as="geometry" />
        </mxCell>
        <mxCell id="OIQ3DRaQgSODuWxTGR8f-42" value="" style="endArrow=classic;html=1;rounded=0;" edge="1" parent="1">
          <mxGeometry width="50" height="50" relative="1" as="geometry">
            <mxPoint x="800" y="550" as="sourcePoint" />
            <mxPoint x="1050" y="550" as="targetPoint" />
          </mxGeometry>
        </mxCell>
        <mxCell id="OIQ3DRaQgSODuWxTGR8f-43" value="6. Verifica credenciales" style="text;html=1;align=center;verticalAlign=middle;resizable=0;points=[];autosize=1;strokeColor=none;fillColor=none;" vertex="1" parent="1">
          <mxGeometry x="840" y="520" width="150" height="30" as="geometry" />
        </mxCell>
        <mxCell id="OIQ3DRaQgSODuWxTGR8f-45" value="" style="endArrow=none;dashed=1;html=1;dashPattern=1 3;strokeWidth=2;rounded=0;entryX=0.5;entryY=1;entryDx=0;entryDy=0;" edge="1" parent="1" source="OIQ3DRaQgSODuWxTGR8f-75" target="OIQ3DRaQgSODuWxTGR8f-44">
          <mxGeometry width="50" height="50" relative="1" as="geometry">
            <mxPoint x="1060" y="1220" as="sourcePoint" />
            <mxPoint x="1049.29" y="80" as="targetPoint" />
          </mxGeometry>
        </mxCell>
        <mxCell id="OIQ3DRaQgSODuWxTGR8f-44" value="" style="rounded=0;whiteSpace=wrap;html=1;" vertex="1" parent="1">
          <mxGeometry x="1040" y="564" width="20" height="40" as="geometry" />
        </mxCell>
        <mxCell id="OIQ3DRaQgSODuWxTGR8f-47" value="" style="endArrow=classic;html=1;rounded=0;dashed=1;" edge="1" parent="1">
          <mxGeometry width="50" height="50" relative="1" as="geometry">
            <mxPoint x="1050" y="620" as="sourcePoint" />
            <mxPoint x="800" y="620" as="targetPoint" />
          </mxGeometry>
        </mxCell>
        <mxCell id="OIQ3DRaQgSODuWxTGR8f-48" value="" style="endArrow=classic;html=1;rounded=0;" edge="1" parent="1">
          <mxGeometry width="50" height="50" relative="1" as="geometry">
            <mxPoint x="800" y="690" as="sourcePoint" />
            <mxPoint x="1610" y="690" as="targetPoint" />
          </mxGeometry>
        </mxCell>
        <mxCell id="OIQ3DRaQgSODuWxTGR8f-49" value="7. Confirmar autenticación" style="text;html=1;align=center;verticalAlign=middle;resizable=0;points=[];autosize=1;strokeColor=none;fillColor=none;" vertex="1" parent="1">
          <mxGeometry x="820" y="584" width="160" height="30" as="geometry" />
        </mxCell>
        <mxCell id="OIQ3DRaQgSODuWxTGR8f-51" value="" style="endArrow=none;dashed=1;html=1;dashPattern=1 3;strokeWidth=2;rounded=0;entryX=0.5;entryY=1;entryDx=0;entryDy=0;" edge="1" parent="1" source="OIQ3DRaQgSODuWxTGR8f-55" target="OIQ3DRaQgSODuWxTGR8f-50">
          <mxGeometry width="50" height="50" relative="1" as="geometry">
            <mxPoint x="800" y="1200" as="sourcePoint" />
            <mxPoint x="799.29" y="80" as="targetPoint" />
          </mxGeometry>
        </mxCell>
        <mxCell id="OIQ3DRaQgSODuWxTGR8f-50" value="" style="rounded=0;whiteSpace=wrap;html=1;" vertex="1" parent="1">
          <mxGeometry x="790" y="630" width="20" height="40" as="geometry" />
        </mxCell>
        <mxCell id="OIQ3DRaQgSODuWxTGR8f-52" value="8. Verifica si los resultados de búsqueda estan en la caché" style="text;html=1;align=center;verticalAlign=middle;resizable=0;points=[];autosize=1;strokeColor=none;fillColor=none;" vertex="1" parent="1">
          <mxGeometry x="1010" y="648" width="340" height="30" as="geometry" />
        </mxCell>
        <mxCell id="OIQ3DRaQgSODuWxTGR8f-56" value="" style="endArrow=none;dashed=1;html=1;dashPattern=1 3;strokeWidth=2;rounded=0;entryX=0.5;entryY=1;entryDx=0;entryDy=0;" edge="1" parent="1" source="OIQ3DRaQgSODuWxTGR8f-70" target="OIQ3DRaQgSODuWxTGR8f-55">
          <mxGeometry width="50" height="50" relative="1" as="geometry">
            <mxPoint x="800" y="1200" as="sourcePoint" />
            <mxPoint x="800" y="670" as="targetPoint" />
          </mxGeometry>
        </mxCell>
        <mxCell id="OIQ3DRaQgSODuWxTGR8f-55" value="" style="verticalLabelPosition=bottom;verticalAlign=top;html=1;shape=card;whiteSpace=wrap;size=20;arcSize=12;rotation=-180;" vertex="1" parent="1">
          <mxGeometry x="770" y="710" width="60" height="40" as="geometry" />
        </mxCell>
        <mxCell id="OIQ3DRaQgSODuWxTGR8f-57" value="Alt" style="text;html=1;align=center;verticalAlign=middle;resizable=0;points=[];autosize=1;strokeColor=none;fillColor=none;" vertex="1" parent="1">
          <mxGeometry x="780" y="715" width="40" height="30" as="geometry" />
        </mxCell>
        <mxCell id="OIQ3DRaQgSODuWxTGR8f-58" value="(Resultado en caché)" style="text;html=1;align=center;verticalAlign=middle;resizable=0;points=[];autosize=1;strokeColor=none;fillColor=none;" vertex="1" parent="1">
          <mxGeometry x="1135" y="710" width="140" height="30" as="geometry" />
        </mxCell>
        <mxCell id="OIQ3DRaQgSODuWxTGR8f-59" value="" style="endArrow=classic;html=1;rounded=0;dashed=1;" edge="1" parent="1">
          <mxGeometry width="50" height="50" relative="1" as="geometry">
            <mxPoint x="1612.285679408482" y="790" as="sourcePoint" />
            <mxPoint x="800" y="790" as="targetPoint" />
          </mxGeometry>
        </mxCell>
        <mxCell id="OIQ3DRaQgSODuWxTGR8f-61" value="" style="endArrow=none;dashed=1;html=1;dashPattern=1 3;strokeWidth=2;rounded=0;entryX=0.5;entryY=1;entryDx=0;entryDy=0;" edge="1" parent="1" source="OIQ3DRaQgSODuWxTGR8f-66" target="OIQ3DRaQgSODuWxTGR8f-60">
          <mxGeometry width="50" height="50" relative="1" as="geometry">
            <mxPoint x="1609" y="1190" as="sourcePoint" />
            <mxPoint x="1609.29" y="80" as="targetPoint" />
          </mxGeometry>
        </mxCell>
        <mxCell id="OIQ3DRaQgSODuWxTGR8f-60" value="" style="rounded=0;whiteSpace=wrap;html=1;" vertex="1" parent="1">
          <mxGeometry x="1600" y="700" width="20" height="80" as="geometry" />
        </mxCell>
        <mxCell id="OIQ3DRaQgSODuWxTGR8f-62" value="9.1 Devuelve los resultados de caché" style="text;html=1;align=center;verticalAlign=middle;resizable=0;points=[];autosize=1;strokeColor=none;fillColor=none;" vertex="1" parent="1">
          <mxGeometry x="1090" y="760" width="220" height="30" as="geometry" />
        </mxCell>
        <mxCell id="OIQ3DRaQgSODuWxTGR8f-63" value="(Resultados no en caché)" style="text;html=1;align=center;verticalAlign=middle;resizable=0;points=[];autosize=1;strokeColor=none;fillColor=none;" vertex="1" parent="1">
          <mxGeometry x="1135" y="820" width="160" height="30" as="geometry" />
        </mxCell>
        <mxCell id="OIQ3DRaQgSODuWxTGR8f-64" value="" style="endArrow=classic;html=1;rounded=0;dashed=1;" edge="1" parent="1">
          <mxGeometry width="50" height="50" relative="1" as="geometry">
            <mxPoint x="1612.285679408482" y="880" as="sourcePoint" />
            <mxPoint x="800" y="880" as="targetPoint" />
          </mxGeometry>
        </mxCell>
        <mxCell id="OIQ3DRaQgSODuWxTGR8f-65" value="9.2 Indica que no hay resultados en caché" style="text;html=1;align=center;verticalAlign=middle;resizable=0;points=[];autosize=1;strokeColor=none;fillColor=none;" vertex="1" parent="1">
          <mxGeometry x="1090" y="850" width="250" height="30" as="geometry" />
        </mxCell>
        <mxCell id="OIQ3DRaQgSODuWxTGR8f-67" value="" style="endArrow=none;dashed=1;html=1;dashPattern=1 3;strokeWidth=2;rounded=0;entryX=0.5;entryY=1;entryDx=0;entryDy=0;" edge="1" parent="1" target="OIQ3DRaQgSODuWxTGR8f-66">
          <mxGeometry width="50" height="50" relative="1" as="geometry">
            <mxPoint x="1610" y="1440" as="sourcePoint" />
            <mxPoint x="1610" y="780" as="targetPoint" />
          </mxGeometry>
        </mxCell>
        <mxCell id="OIQ3DRaQgSODuWxTGR8f-66" value="" style="rounded=0;whiteSpace=wrap;html=1;" vertex="1" parent="1">
          <mxGeometry x="1600" y="795" width="20" height="80" as="geometry" />
        </mxCell>
        <mxCell id="OIQ3DRaQgSODuWxTGR8f-68" value="" style="endArrow=classic;html=1;rounded=0;" edge="1" parent="1">
          <mxGeometry width="50" height="50" relative="1" as="geometry">
            <mxPoint x="800" y="960" as="sourcePoint" />
            <mxPoint x="1340" y="960" as="targetPoint" />
          </mxGeometry>
        </mxCell>
        <mxCell id="OIQ3DRaQgSODuWxTGR8f-69" value="10. Ejecuta la consulta en la Base de Datos" style="text;html=1;align=center;verticalAlign=middle;resizable=0;points=[];autosize=1;strokeColor=none;fillColor=none;" vertex="1" parent="1">
          <mxGeometry x="940" y="928" width="260" height="30" as="geometry" />
        </mxCell>
        <mxCell id="OIQ3DRaQgSODuWxTGR8f-71" value="" style="endArrow=none;dashed=1;html=1;dashPattern=1 3;strokeWidth=2;rounded=0;entryX=0.5;entryY=1;entryDx=0;entryDy=0;" edge="1" parent="1" source="OIQ3DRaQgSODuWxTGR8f-77" target="OIQ3DRaQgSODuWxTGR8f-70">
          <mxGeometry width="50" height="50" relative="1" as="geometry">
            <mxPoint x="800" y="1200" as="sourcePoint" />
            <mxPoint x="800" y="710" as="targetPoint" />
          </mxGeometry>
        </mxCell>
        <mxCell id="OIQ3DRaQgSODuWxTGR8f-70" value="" style="rounded=0;whiteSpace=wrap;html=1;" vertex="1" parent="1">
          <mxGeometry x="790" y="888" width="20" height="52" as="geometry" />
        </mxCell>
        <mxCell id="OIQ3DRaQgSODuWxTGR8f-73" value="" style="endArrow=none;dashed=1;html=1;dashPattern=1 3;strokeWidth=2;rounded=0;entryX=0.5;entryY=1;entryDx=0;entryDy=0;" edge="1" parent="1" target="OIQ3DRaQgSODuWxTGR8f-72">
          <mxGeometry width="50" height="50" relative="1" as="geometry">
            <mxPoint x="1340" y="1440" as="sourcePoint" />
            <mxPoint x="1339.29" y="80" as="targetPoint" />
          </mxGeometry>
        </mxCell>
        <mxCell id="OIQ3DRaQgSODuWxTGR8f-72" value="" style="rounded=0;whiteSpace=wrap;html=1;" vertex="1" parent="1">
          <mxGeometry x="1330" y="970" width="20" height="52" as="geometry" />
        </mxCell>
        <mxCell id="OIQ3DRaQgSODuWxTGR8f-74" value="" style="endArrow=classic;html=1;rounded=0;dashed=1;" edge="1" parent="1">
          <mxGeometry width="50" height="50" relative="1" as="geometry">
            <mxPoint x="1340" y="1040" as="sourcePoint" />
            <mxPoint x="800" y="1040" as="targetPoint" />
          </mxGeometry>
        </mxCell>
        <mxCell id="OIQ3DRaQgSODuWxTGR8f-76" value="" style="endArrow=none;dashed=1;html=1;dashPattern=1 3;strokeWidth=2;rounded=0;entryX=0.5;entryY=1;entryDx=0;entryDy=0;" edge="1" parent="1" target="OIQ3DRaQgSODuWxTGR8f-75">
          <mxGeometry width="50" height="50" relative="1" as="geometry">
            <mxPoint x="1060" y="1440" as="sourcePoint" />
            <mxPoint x="1050" y="604" as="targetPoint" />
          </mxGeometry>
        </mxCell>
        <mxCell id="OIQ3DRaQgSODuWxTGR8f-75" value="11. Devuelve resultados de búsqueda" style="text;html=1;align=center;verticalAlign=middle;resizable=0;points=[];autosize=1;strokeColor=none;fillColor=none;" vertex="1" parent="1">
          <mxGeometry x="950" y="1000" width="220" height="30" as="geometry" />
        </mxCell>
        <mxCell id="OIQ3DRaQgSODuWxTGR8f-78" value="" style="endArrow=none;dashed=1;html=1;dashPattern=1 3;strokeWidth=2;rounded=0;entryX=0.5;entryY=1;entryDx=0;entryDy=0;" edge="1" parent="1" source="OIQ3DRaQgSODuWxTGR8f-82" target="OIQ3DRaQgSODuWxTGR8f-77">
          <mxGeometry width="50" height="50" relative="1" as="geometry">
            <mxPoint x="800" y="1350" as="sourcePoint" />
            <mxPoint x="800" y="940" as="targetPoint" />
          </mxGeometry>
        </mxCell>
        <mxCell id="OIQ3DRaQgSODuWxTGR8f-77" value="" style="rounded=0;whiteSpace=wrap;html=1;" vertex="1" parent="1">
          <mxGeometry x="790" y="1050" width="20" height="52" as="geometry" />
        </mxCell>
        <mxCell id="OIQ3DRaQgSODuWxTGR8f-79" value="" style="endArrow=classic;html=1;rounded=0;" edge="1" parent="1">
          <mxGeometry width="50" height="50" relative="1" as="geometry">
            <mxPoint x="800" y="1120" as="sourcePoint" />
            <mxPoint x="1610" y="1120" as="targetPoint" />
          </mxGeometry>
        </mxCell>
        <mxCell id="OIQ3DRaQgSODuWxTGR8f-80" value="12. Almacena resultdos en caché" style="text;html=1;align=center;verticalAlign=middle;resizable=0;points=[];autosize=1;strokeColor=none;fillColor=none;" vertex="1" parent="1">
          <mxGeometry x="1080" y="1090" width="200" height="30" as="geometry" />
        </mxCell>
        <mxCell id="OIQ3DRaQgSODuWxTGR8f-83" value="" style="endArrow=none;dashed=1;html=1;dashPattern=1 3;strokeWidth=2;rounded=0;entryX=0.5;entryY=1;entryDx=0;entryDy=0;" edge="1" parent="1" target="OIQ3DRaQgSODuWxTGR8f-82">
          <mxGeometry width="50" height="50" relative="1" as="geometry">
            <mxPoint x="800" y="1440" as="sourcePoint" />
            <mxPoint x="800" y="1102" as="targetPoint" />
          </mxGeometry>
        </mxCell>
        <mxCell id="OIQ3DRaQgSODuWxTGR8f-82" value="" style="rounded=0;whiteSpace=wrap;html=1;" vertex="1" parent="1">
          <mxGeometry x="790" y="1190" width="20" height="52" as="geometry" />
        </mxCell>
        <mxCell id="OIQ3DRaQgSODuWxTGR8f-84" value="13. Procesa resultados de búsqueda" style="text;html=1;align=center;verticalAlign=middle;resizable=0;points=[];autosize=1;strokeColor=none;fillColor=none;" vertex="1" parent="1">
          <mxGeometry x="810" y="1201" width="220" height="30" as="geometry" />
        </mxCell>
        <mxCell id="OIQ3DRaQgSODuWxTGR8f-85" value="" style="endArrow=classic;html=1;rounded=0;dashed=1;" edge="1" parent="1">
          <mxGeometry width="50" height="50" relative="1" as="geometry">
            <mxPoint x="800" y="1280" as="sourcePoint" />
            <mxPoint x="560" y="1280" as="targetPoint" />
          </mxGeometry>
        </mxCell>
        <mxCell id="OIQ3DRaQgSODuWxTGR8f-86" value="14. Respuesta con resultados" style="text;html=1;align=center;verticalAlign=middle;resizable=0;points=[];autosize=1;strokeColor=none;fillColor=none;" vertex="1" parent="1">
          <mxGeometry x="580" y="1248" width="180" height="30" as="geometry" />
        </mxCell>
        <mxCell id="OIQ3DRaQgSODuWxTGR8f-88" value="" style="endArrow=none;dashed=1;html=1;dashPattern=1 3;strokeWidth=2;rounded=0;entryX=0.5;entryY=1;entryDx=0;entryDy=0;" edge="1" parent="1" target="OIQ3DRaQgSODuWxTGR8f-87">
          <mxGeometry width="50" height="50" relative="1" as="geometry">
            <mxPoint x="560" y="1440" as="sourcePoint" />
            <mxPoint x="560" y="420" as="targetPoint" />
          </mxGeometry>
        </mxCell>
        <mxCell id="OIQ3DRaQgSODuWxTGR8f-87" value="" style="rounded=0;whiteSpace=wrap;html=1;" vertex="1" parent="1">
          <mxGeometry x="550" y="1290" width="20" height="52" as="geometry" />
        </mxCell>
        <mxCell id="OIQ3DRaQgSODuWxTGR8f-89" value="15. Procesa resultados" style="text;html=1;align=center;verticalAlign=middle;resizable=0;points=[];autosize=1;strokeColor=none;fillColor=none;" vertex="1" parent="1">
          <mxGeometry x="570" y="1301" width="150" height="30" as="geometry" />
        </mxCell>
        <mxCell id="OIQ3DRaQgSODuWxTGR8f-90" value="" style="endArrow=classic;html=1;rounded=0;" edge="1" parent="1">
          <mxGeometry width="50" height="50" relative="1" as="geometry">
            <mxPoint x="560" y="1360" as="sourcePoint" />
            <mxPoint x="290" y="1360" as="targetPoint" />
          </mxGeometry>
        </mxCell>
        <mxCell id="OIQ3DRaQgSODuWxTGR8f-91" value="16. Actualiza interfaz de búsqueda" style="text;html=1;align=center;verticalAlign=middle;resizable=0;points=[];autosize=1;strokeColor=none;fillColor=none;" vertex="1" parent="1">
          <mxGeometry x="320" y="1330" width="210" height="30" as="geometry" />
        </mxCell>
        <mxCell id="OIQ3DRaQgSODuWxTGR8f-92" value="" style="endArrow=classic;html=1;rounded=0;" edge="1" parent="1">
          <mxGeometry width="50" height="50" relative="1" as="geometry">
            <mxPoint x="290" y="1400" as="sourcePoint" />
            <mxPoint x="50" y="1400" as="targetPoint" />
          </mxGeometry>
        </mxCell>
        <mxCell id="OIQ3DRaQgSODuWxTGR8f-93" value="17. Muestra resultados de búsqueda" style="text;html=1;align=center;verticalAlign=middle;resizable=0;points=[];autosize=1;strokeColor=none;fillColor=none;" vertex="1" parent="1">
          <mxGeometry x="60" y="1370" width="220" height="30" as="geometry" />
        </mxCell>
        <mxCell id="OIQ3DRaQgSODuWxTGR8f-95" value="" style="endArrow=none;dashed=1;html=1;dashPattern=1 3;strokeWidth=2;rounded=0;entryX=0.5;entryY=1;entryDx=0;entryDy=0;" edge="1" parent="1" target="OIQ3DRaQgSODuWxTGR8f-94">
          <mxGeometry width="50" height="50" relative="1" as="geometry">
            <mxPoint x="290" y="1440" as="sourcePoint" />
            <mxPoint x="290" y="80" as="targetPoint" />
          </mxGeometry>
        </mxCell>
        <mxCell id="OIQ3DRaQgSODuWxTGR8f-94" value="" style="rounded=0;whiteSpace=wrap;html=1;" vertex="1" parent="1">
          <mxGeometry x="280" y="1370" width="20" height="22" as="geometry" />
        </mxCell>
        <mxCell id="OIQ3DRaQgSODuWxTGR8f-97" value="" style="endArrow=none;dashed=1;html=1;dashPattern=1 3;strokeWidth=2;rounded=0;entryX=0.5;entryY=1;entryDx=0;entryDy=0;" edge="1" parent="1" target="OIQ3DRaQgSODuWxTGR8f-96">
          <mxGeometry width="50" height="50" relative="1" as="geometry">
            <mxPoint x="55" y="1440" as="sourcePoint" />
            <mxPoint x="55" y="180" as="targetPoint" />
          </mxGeometry>
        </mxCell>
        <mxCell id="OIQ3DRaQgSODuWxTGR8f-96" value="" style="rounded=0;whiteSpace=wrap;html=1;" vertex="1" parent="1">
          <mxGeometry x="45" y="1410" width="20" height="22" as="geometry" />
        </mxCell>
      </root>
    </mxGraphModel>
  </diagram>
</mxfile>
